<svg width="115" height="46" viewBox="0 0 115 46" fill="none" xmlns="http://www.w3.org/2000/svg">
<rect x="0.5" y="0.5" width="114" height="45" rx="22.5" stroke="#C1B6AD"/>
<rect x="8" y="8" width="30" height="30" rx="15" fill="#C1B6AD"/>
<path d="M15 31.12H31V15.12H15V31.12Z" fill="#403F3D"/>
<path d="M46.6364 19.1307V17.3636H55.9205V19.1307H52.3239V29H50.233V19.1307H46.6364ZM60.2173 29.1705C59.3423 29.1705 58.5866 28.9886 57.9503 28.625C57.3177 28.2576 56.831 27.7386 56.4901 27.0682C56.1491 26.3939 55.9787 25.6004 55.9787 24.6875C55.9787 23.7898 56.1491 23.0019 56.4901 22.3239C56.8348 21.642 57.3158 21.1117 57.9332 20.733C58.5507 20.3504 59.276 20.1591 60.1094 20.1591C60.6473 20.1591 61.1548 20.2462 61.6321 20.4205C62.1132 20.5909 62.5374 20.8561 62.9048 21.2159C63.276 21.5758 63.5677 22.0341 63.7798 22.5909C63.992 23.1439 64.098 23.803 64.098 24.5682V25.1989H56.9446V23.8125H62.1264C62.1226 23.4186 62.0374 23.0682 61.8707 22.7614C61.7041 22.4508 61.4711 22.2064 61.1719 22.0284C60.8764 21.8504 60.5317 21.7614 60.1378 21.7614C59.7173 21.7614 59.348 21.8636 59.0298 22.0682C58.7116 22.2689 58.4635 22.5341 58.2855 22.8636C58.1113 23.1894 58.0223 23.5473 58.0185 23.9375V25.1477C58.0185 25.6553 58.1113 26.0909 58.2969 26.4545C58.4825 26.8144 58.742 27.0909 59.0753 27.2841C59.4086 27.4735 59.7988 27.5682 60.2457 27.5682C60.545 27.5682 60.8158 27.5265 61.0582 27.4432C61.3007 27.3561 61.5109 27.2292 61.6889 27.0625C61.867 26.8958 62.0014 26.6894 62.0923 26.4432L64.0128 26.6591C63.8916 27.1667 63.6605 27.6098 63.3196 27.9886C62.9825 28.3636 62.5507 28.6553 62.0241 28.8636C61.4976 29.0682 60.8954 29.1705 60.2173 29.1705ZM68.3494 29.1761C67.7964 29.1761 67.2983 29.0777 66.8551 28.8807C66.4157 28.6799 66.0672 28.3845 65.8097 27.9943C65.5559 27.6042 65.429 27.1231 65.429 26.5511C65.429 26.0587 65.5199 25.6515 65.7017 25.3295C65.8835 25.0076 66.1316 24.75 66.446 24.5568C66.7604 24.3636 67.1146 24.2178 67.5085 24.1193C67.9063 24.017 68.3172 23.9432 68.7415 23.8977C69.2528 23.8447 69.6676 23.7973 69.9858 23.7557C70.304 23.7102 70.535 23.642 70.679 23.5511C70.8267 23.4564 70.9006 23.3106 70.9006 23.1136V23.0795C70.9006 22.6515 70.7737 22.3201 70.5199 22.0852C70.2661 21.8504 69.9006 21.733 69.4233 21.733C68.9195 21.733 68.5199 21.8428 68.2244 22.0625C67.9328 22.2822 67.7358 22.5417 67.6335 22.8409L65.7131 22.5682C65.8646 22.0379 66.1146 21.5947 66.4631 21.2386C66.8116 20.8788 67.2377 20.6098 67.7415 20.4318C68.2453 20.25 68.8021 20.1591 69.4119 20.1591C69.8324 20.1591 70.2509 20.2083 70.6676 20.3068C71.0843 20.4053 71.465 20.5682 71.8097 20.7955C72.1544 21.0189 72.4309 21.3239 72.6392 21.7102C72.8513 22.0966 72.9574 22.5795 72.9574 23.1591V29H70.9801V27.8011H70.9119C70.7869 28.0436 70.6108 28.2708 70.3835 28.483C70.16 28.6913 69.8778 28.8598 69.5369 28.9886C69.1998 29.1136 68.804 29.1761 68.3494 29.1761ZM68.8835 27.6648C69.2964 27.6648 69.6544 27.5833 69.9574 27.4205C70.2604 27.2538 70.4934 27.0341 70.6562 26.7614C70.8229 26.4886 70.9062 26.1913 70.9062 25.8693V24.8409C70.8419 24.8939 70.732 24.9432 70.5767 24.9886C70.4252 25.0341 70.2547 25.0739 70.0653 25.108C69.8759 25.142 69.6884 25.1723 69.5028 25.1989C69.3172 25.2254 69.1563 25.2481 69.0199 25.267C68.7131 25.3087 68.4384 25.3769 68.196 25.4716C67.9536 25.5663 67.7623 25.6989 67.6222 25.8693C67.482 26.036 67.4119 26.2519 67.4119 26.517C67.4119 26.8958 67.5502 27.1818 67.8267 27.375C68.1032 27.5682 68.4555 27.6648 68.8835 27.6648Z" fill="#403F3D"/>
</svg>
