<svg width="124" height="46" viewBox="0 0 124 46" fill="none" xmlns="http://www.w3.org/2000/svg">
<rect x="0.5" y="0.5" width="123" height="45" rx="22.5" stroke="#C1B6AD"/>
<rect x="8" y="8" width="30" height="30" rx="15" fill="#C1B6AD"/>
<path d="M15 31.12H31V15.12H15V31.12Z" fill="#403F3D"/>
<path d="M51.0909 29H47.1477V17.3636H51.1705C52.3258 17.3636 53.3182 17.5966 54.1477 18.0625C54.9811 18.5246 55.6212 19.1894 56.0682 20.0568C56.5152 20.9242 56.7386 21.9621 56.7386 23.1705C56.7386 24.3826 56.5133 25.4242 56.0625 26.2955C55.6155 27.1667 54.9697 27.8352 54.125 28.3011C53.2841 28.767 52.2727 29 51.0909 29ZM49.2557 27.1761H50.9886C51.7992 27.1761 52.4754 27.0284 53.017 26.733C53.5587 26.4337 53.9659 25.9886 54.2386 25.3977C54.5114 24.803 54.6477 24.0606 54.6477 23.1705C54.6477 22.2803 54.5114 21.5417 54.2386 20.9545C53.9659 20.3636 53.5625 19.9223 53.0284 19.6307C52.4981 19.3352 51.839 19.1875 51.0511 19.1875H49.2557V27.1761ZM62.5142 29.1705C61.6392 29.1705 60.8835 28.9886 60.2472 28.625C59.6146 28.2576 59.1278 27.7386 58.7869 27.0682C58.446 26.3939 58.2756 25.6004 58.2756 24.6875C58.2756 23.7898 58.446 23.0019 58.7869 22.3239C59.1316 21.642 59.6127 21.1117 60.2301 20.733C60.8475 20.3504 61.5729 20.1591 62.4062 20.1591C62.9441 20.1591 63.4517 20.2462 63.929 20.4205C64.41 20.5909 64.8343 20.8561 65.2017 21.2159C65.5729 21.5758 65.8646 22.0341 66.0767 22.5909C66.2888 23.1439 66.3949 23.803 66.3949 24.5682V25.1989H59.2415V23.8125H64.4233C64.4195 23.4186 64.3343 23.0682 64.1676 22.7614C64.0009 22.4508 63.768 22.2064 63.4688 22.0284C63.1733 21.8504 62.8286 21.7614 62.4347 21.7614C62.0142 21.7614 61.6449 21.8636 61.3267 22.0682C61.0085 22.2689 60.7604 22.5341 60.5824 22.8636C60.4081 23.1894 60.3191 23.5473 60.3153 23.9375V25.1477C60.3153 25.6553 60.4081 26.0909 60.5938 26.4545C60.7794 26.8144 61.0388 27.0909 61.3722 27.2841C61.7055 27.4735 62.0956 27.5682 62.5426 27.5682C62.8419 27.5682 63.1127 27.5265 63.3551 27.4432C63.5975 27.3561 63.8078 27.2292 63.9858 27.0625C64.1638 26.8958 64.2983 26.6894 64.3892 26.4432L66.3097 26.6591C66.1884 27.1667 65.9574 27.6098 65.6165 27.9886C65.2794 28.3636 64.8475 28.6553 64.321 28.8636C63.7945 29.0682 63.1922 29.1705 62.5142 29.1705ZM75.0327 22.5795L73.1577 22.7841C73.1046 22.5947 73.0118 22.4167 72.8793 22.25C72.7505 22.0833 72.5762 21.9489 72.3565 21.8466C72.1368 21.7443 71.8679 21.6932 71.5497 21.6932C71.1217 21.6932 70.7618 21.786 70.4702 21.9716C70.1823 22.1572 70.0402 22.3977 70.044 22.6932C70.0402 22.947 70.133 23.1534 70.3224 23.3125C70.5156 23.4716 70.8338 23.6023 71.277 23.7045L72.7656 24.0227C73.5914 24.2008 74.205 24.483 74.6065 24.8693C75.0118 25.2557 75.2164 25.7614 75.2202 26.3864C75.2164 26.9356 75.0554 27.4205 74.7372 27.8409C74.4228 28.2576 73.9853 28.5833 73.4247 28.8182C72.8641 29.053 72.2202 29.1705 71.4929 29.1705C70.4247 29.1705 69.5649 28.947 68.9134 28.5C68.2618 28.0492 67.8736 27.4223 67.7486 26.6193L69.7543 26.4261C69.8452 26.8201 70.0384 27.1174 70.3338 27.3182C70.6293 27.5189 71.0137 27.6193 71.4872 27.6193C71.9759 27.6193 72.3679 27.5189 72.6634 27.3182C72.9626 27.1174 73.1122 26.8693 73.1122 26.5739C73.1122 26.3239 73.0156 26.1174 72.8224 25.9545C72.633 25.7917 72.3376 25.6667 71.9361 25.5795L70.4474 25.267C69.6103 25.0928 68.991 24.7992 68.5895 24.3864C68.188 23.9697 67.9891 23.4432 67.9929 22.8068C67.9891 22.2689 68.1349 21.803 68.4304 21.4091C68.7296 21.0114 69.1444 20.7045 69.6747 20.4886C70.2088 20.2689 70.8243 20.1591 71.5213 20.1591C72.544 20.1591 73.349 20.3769 73.9361 20.8125C74.527 21.2481 74.8925 21.8371 75.0327 22.5795ZM83.8139 22.5795L81.9389 22.7841C81.8859 22.5947 81.7931 22.4167 81.6605 22.25C81.5317 22.0833 81.3575 21.9489 81.1378 21.8466C80.9181 21.7443 80.6491 21.6932 80.331 21.6932C79.9029 21.6932 79.5431 21.786 79.2514 21.9716C78.9635 22.1572 78.8215 22.3977 78.8253 22.6932C78.8215 22.947 78.9143 23.1534 79.1037 23.3125C79.2969 23.4716 79.6151 23.6023 80.0582 23.7045L81.5469 24.0227C82.3726 24.2008 82.9863 24.483 83.3878 24.8693C83.7931 25.2557 83.9976 25.7614 84.0014 26.3864C83.9976 26.9356 83.8366 27.4205 83.5185 27.8409C83.2041 28.2576 82.7666 28.5833 82.206 28.8182C81.6454 29.053 81.0014 29.1705 80.2741 29.1705C79.206 29.1705 78.3461 28.947 77.6946 28.5C77.0431 28.0492 76.6548 27.4223 76.5298 26.6193L78.5355 26.4261C78.6264 26.8201 78.8196 27.1174 79.1151 27.3182C79.4105 27.5189 79.795 27.6193 80.2685 27.6193C80.7571 27.6193 81.1491 27.5189 81.4446 27.3182C81.7438 27.1174 81.8935 26.8693 81.8935 26.5739C81.8935 26.3239 81.7969 26.1174 81.6037 25.9545C81.4143 25.7917 81.1188 25.6667 80.7173 25.5795L79.2287 25.267C78.3916 25.0928 77.7723 24.7992 77.3707 24.3864C76.9692 23.9697 76.7704 23.4432 76.7741 22.8068C76.7704 22.2689 76.9162 21.803 77.2116 21.4091C77.5109 21.0114 77.9257 20.7045 78.456 20.4886C78.9901 20.2689 79.6056 20.1591 80.3026 20.1591C81.3253 20.1591 82.1302 20.3769 82.7173 20.8125C83.3082 21.2481 83.6738 21.8371 83.8139 22.5795ZM89.5611 29.1705C88.6861 29.1705 87.9304 28.9886 87.294 28.625C86.6615 28.2576 86.1747 27.7386 85.8338 27.0682C85.4929 26.3939 85.3224 25.6004 85.3224 24.6875C85.3224 23.7898 85.4929 23.0019 85.8338 22.3239C86.1785 21.642 86.6596 21.1117 87.277 20.733C87.8944 20.3504 88.6198 20.1591 89.4531 20.1591C89.991 20.1591 90.4986 20.2462 90.9759 20.4205C91.4569 20.5909 91.8812 20.8561 92.2486 21.2159C92.6198 21.5758 92.9115 22.0341 93.1236 22.5909C93.3357 23.1439 93.4418 23.803 93.4418 24.5682V25.1989H86.2884V23.8125H91.4702C91.4664 23.4186 91.3812 23.0682 91.2145 22.7614C91.0478 22.4508 90.8149 22.2064 90.5156 22.0284C90.2202 21.8504 89.8755 21.7614 89.4815 21.7614C89.0611 21.7614 88.6918 21.8636 88.3736 22.0682C88.0554 22.2689 87.8073 22.5341 87.6293 22.8636C87.455 23.1894 87.366 23.5473 87.3622 23.9375V25.1477C87.3622 25.6553 87.455 26.0909 87.6406 26.4545C87.8262 26.8144 88.0857 27.0909 88.419 27.2841C88.7524 27.4735 89.1425 27.5682 89.5895 27.5682C89.8887 27.5682 90.1596 27.5265 90.402 27.4432C90.6444 27.3561 90.8546 27.2292 91.0327 27.0625C91.2107 26.8958 91.3452 26.6894 91.4361 26.4432L93.3565 26.6591C93.2353 27.1667 93.0043 27.6098 92.6634 27.9886C92.3262 28.3636 91.8944 28.6553 91.3679 28.8636C90.8414 29.0682 90.2391 29.1705 89.5611 29.1705ZM95.1818 29V20.2727H97.1761V21.7273H97.267C97.4261 21.2235 97.6989 20.8352 98.0852 20.5625C98.4754 20.286 98.9205 20.1477 99.4205 20.1477C99.5341 20.1477 99.661 20.1534 99.8011 20.1648C99.9451 20.1723 100.064 20.1856 100.159 20.2045V22.0966C100.072 22.0663 99.9337 22.0398 99.7443 22.017C99.5587 21.9905 99.3788 21.9773 99.2045 21.9773C98.8295 21.9773 98.4924 22.0587 98.1932 22.2216C97.8977 22.3807 97.6648 22.6023 97.4943 22.8864C97.3239 23.1705 97.2386 23.4981 97.2386 23.8693V29H95.1818ZM106.352 20.2727V21.8636H101.335V20.2727H106.352ZM102.574 18.1818H104.631V26.375C104.631 26.6515 104.672 26.8636 104.756 27.0114C104.843 27.1553 104.956 27.2538 105.097 27.3068C105.237 27.3598 105.392 27.3864 105.562 27.3864C105.691 27.3864 105.809 27.3769 105.915 27.358C106.025 27.339 106.108 27.322 106.165 27.3068L106.511 28.9148C106.402 28.9527 106.244 28.9943 106.04 29.0398C105.839 29.0852 105.593 29.1117 105.301 29.1193C104.786 29.1345 104.322 29.0568 103.909 28.8864C103.496 28.7121 103.169 28.4432 102.926 28.0795C102.688 27.7159 102.57 27.2614 102.574 26.7159V18.1818Z" fill="#403F3D"/>
</svg>
