<svg width="116" height="46" viewBox="0 0 116 46" fill="none" xmlns="http://www.w3.org/2000/svg">
<rect x="0.5" width="115" height="46" rx="23" fill="#665F55"/>
<rect x="8.5" y="8" width="30" height="30" rx="15" fill="#E1D4C9"/>
<path d="M15.5 31.12H31.5V15.12H15.5V31.12Z" fill="#403F3D"/>
<path d="M57.608 21.2898H55.483C55.4223 20.9413 55.3106 20.6326 55.1477 20.3636C54.9848 20.0909 54.7822 19.8598 54.5398 19.6705C54.2973 19.4811 54.0208 19.339 53.7102 19.2443C53.4034 19.1458 53.072 19.0966 52.7159 19.0966C52.0833 19.0966 51.5227 19.2557 51.0341 19.5739C50.5455 19.8883 50.1629 20.3504 49.8864 20.9602C49.6098 21.5663 49.4716 22.3068 49.4716 23.1818C49.4716 24.072 49.6098 24.822 49.8864 25.4318C50.1667 26.0379 50.5492 26.4962 51.0341 26.8068C51.5227 27.1136 52.0814 27.267 52.7102 27.267C53.0587 27.267 53.3845 27.2216 53.6875 27.1307C53.9943 27.036 54.2689 26.8977 54.5114 26.7159C54.7576 26.5341 54.964 26.3106 55.1307 26.0455C55.3011 25.7803 55.4186 25.4773 55.483 25.1364L57.608 25.1477C57.5284 25.7008 57.3561 26.2197 57.0909 26.7045C56.8295 27.1894 56.4867 27.6174 56.0625 27.9886C55.6383 28.3561 55.142 28.6439 54.5739 28.8523C54.0057 29.0568 53.375 29.1591 52.6818 29.1591C51.6591 29.1591 50.7462 28.9223 49.9432 28.4489C49.1402 27.9754 48.5076 27.2917 48.0455 26.3977C47.5833 25.5038 47.3523 24.4318 47.3523 23.1818C47.3523 21.928 47.5852 20.8561 48.0511 19.9659C48.517 19.072 49.1515 18.3883 49.9545 17.9148C50.7576 17.4413 51.6667 17.2045 52.6818 17.2045C53.3295 17.2045 53.9318 17.2955 54.4886 17.4773C55.0455 17.6591 55.5417 17.9261 55.9773 18.2784C56.4129 18.6269 56.7708 19.0549 57.0511 19.5625C57.3352 20.0663 57.5208 20.642 57.608 21.2898ZM63.2543 29.1705C62.402 29.1705 61.6634 28.983 61.0384 28.608C60.4134 28.233 59.9285 27.7083 59.5838 27.0341C59.2429 26.3598 59.0724 25.572 59.0724 24.6705C59.0724 23.7689 59.2429 22.9792 59.5838 22.3011C59.9285 21.6231 60.4134 21.0966 61.0384 20.7216C61.6634 20.3466 62.402 20.1591 63.2543 20.1591C64.1065 20.1591 64.8452 20.3466 65.4702 20.7216C66.0952 21.0966 66.5781 21.6231 66.919 22.3011C67.2637 22.9792 67.4361 23.7689 67.4361 24.6705C67.4361 25.572 67.2637 26.3598 66.919 27.0341C66.5781 27.7083 66.0952 28.233 65.4702 28.608C64.8452 28.983 64.1065 29.1705 63.2543 29.1705ZM63.2656 27.5227C63.7277 27.5227 64.1141 27.3958 64.4247 27.142C64.7353 26.8845 64.9664 26.5398 65.1179 26.108C65.2732 25.6761 65.3509 25.1951 65.3509 24.6648C65.3509 24.1307 65.2732 23.6477 65.1179 23.2159C64.9664 22.7803 64.7353 22.4337 64.4247 22.1761C64.1141 21.9186 63.7277 21.7898 63.2656 21.7898C62.7921 21.7898 62.3982 21.9186 62.0838 22.1761C61.7732 22.4337 61.5402 22.7803 61.3849 23.2159C61.2334 23.6477 61.1577 24.1307 61.1577 24.6648C61.1577 25.1951 61.2334 25.6761 61.3849 26.108C61.5402 26.5398 61.7732 26.8845 62.0838 27.142C62.3982 27.3958 62.7921 27.5227 63.2656 27.5227ZM73.6023 20.2727V21.8636H68.4432V20.2727H73.6023ZM69.733 29V19.4489C69.733 18.8617 69.8542 18.3731 70.0966 17.983C70.3428 17.5928 70.6723 17.3011 71.0852 17.108C71.4981 16.9148 71.9564 16.8182 72.4602 16.8182C72.8163 16.8182 73.1326 16.8466 73.4091 16.9034C73.6856 16.9602 73.8902 17.0114 74.0227 17.0568L73.6136 18.6477C73.5265 18.6212 73.4167 18.5947 73.2841 18.5682C73.1515 18.5379 73.0038 18.5227 72.8409 18.5227C72.4583 18.5227 72.1875 18.6155 72.0284 18.8011C71.8731 18.983 71.7955 19.2443 71.7955 19.5852V29H69.733ZM79.6335 20.2727V21.8636H74.4744V20.2727H79.6335ZM75.7642 29V19.4489C75.7642 18.8617 75.8854 18.3731 76.1278 17.983C76.3741 17.5928 76.7036 17.3011 77.1165 17.108C77.5294 16.9148 77.9877 16.8182 78.4915 16.8182C78.8475 16.8182 79.1638 16.8466 79.4403 16.9034C79.7169 16.9602 79.9214 17.0114 80.054 17.0568L79.6449 18.6477C79.5578 18.6212 79.4479 18.5947 79.3153 18.5682C79.1828 18.5379 79.035 18.5227 78.8722 18.5227C78.4896 18.5227 78.2188 18.6155 78.0597 18.8011C77.9044 18.983 77.8267 19.2443 77.8267 19.5852V29H75.7642ZM84.7798 29.1705C83.9048 29.1705 83.1491 28.9886 82.5128 28.625C81.8802 28.2576 81.3935 27.7386 81.0526 27.0682C80.7116 26.3939 80.5412 25.6004 80.5412 24.6875C80.5412 23.7898 80.7116 23.0019 81.0526 22.3239C81.3973 21.642 81.8783 21.1117 82.4957 20.733C83.1132 20.3504 83.8385 20.1591 84.6719 20.1591C85.2098 20.1591 85.7173 20.2462 86.1946 20.4205C86.6757 20.5909 87.0999 20.8561 87.4673 21.2159C87.8385 21.5758 88.1302 22.0341 88.3423 22.5909C88.5545 23.1439 88.6605 23.803 88.6605 24.5682V25.1989H81.5071V23.8125H86.6889C86.6851 23.4186 86.5999 23.0682 86.4332 22.7614C86.2666 22.4508 86.0336 22.2064 85.7344 22.0284C85.4389 21.8504 85.0942 21.7614 84.7003 21.7614C84.2798 21.7614 83.9105 21.8636 83.5923 22.0682C83.2741 22.2689 83.026 22.5341 82.848 22.8636C82.6738 23.1894 82.5848 23.5473 82.581 23.9375V25.1477C82.581 25.6553 82.6738 26.0909 82.8594 26.4545C83.045 26.8144 83.3045 27.0909 83.6378 27.2841C83.9711 27.4735 84.3613 27.5682 84.8082 27.5682C85.1075 27.5682 85.3783 27.5265 85.6207 27.4432C85.8632 27.3561 86.0734 27.2292 86.2514 27.0625C86.4295 26.8958 86.5639 26.6894 86.6548 26.4432L88.5753 26.6591C88.4541 27.1667 88.223 27.6098 87.8821 27.9886C87.545 28.3636 87.1132 28.6553 86.5866 28.8636C86.0601 29.0682 85.4579 29.1705 84.7798 29.1705ZM94.2642 29.1705C93.3892 29.1705 92.6335 28.9886 91.9972 28.625C91.3646 28.2576 90.8778 27.7386 90.5369 27.0682C90.196 26.3939 90.0256 25.6004 90.0256 24.6875C90.0256 23.7898 90.196 23.0019 90.5369 22.3239C90.8816 21.642 91.3627 21.1117 91.9801 20.733C92.5975 20.3504 93.3229 20.1591 94.1562 20.1591C94.6941 20.1591 95.2017 20.2462 95.679 20.4205C96.16 20.5909 96.5843 20.8561 96.9517 21.2159C97.3229 21.5758 97.6146 22.0341 97.8267 22.5909C98.0388 23.1439 98.1449 23.803 98.1449 24.5682V25.1989H90.9915V23.8125H96.1733C96.1695 23.4186 96.0843 23.0682 95.9176 22.7614C95.7509 22.4508 95.518 22.2064 95.2188 22.0284C94.9233 21.8504 94.5786 21.7614 94.1847 21.7614C93.7642 21.7614 93.3949 21.8636 93.0767 22.0682C92.7585 22.2689 92.5104 22.5341 92.3324 22.8636C92.1581 23.1894 92.0691 23.5473 92.0653 23.9375V25.1477C92.0653 25.6553 92.1581 26.0909 92.3438 26.4545C92.5294 26.8144 92.7888 27.0909 93.1222 27.2841C93.4555 27.4735 93.8456 27.5682 94.2926 27.5682C94.5919 27.5682 94.8627 27.5265 95.1051 27.4432C95.3475 27.3561 95.5578 27.2292 95.7358 27.0625C95.9138 26.8958 96.0483 26.6894 96.1392 26.4432L98.0597 26.6591C97.9384 27.1667 97.7074 27.6098 97.3665 27.9886C97.0294 28.3636 96.5975 28.6553 96.071 28.8636C95.5445 29.0682 94.9422 29.1705 94.2642 29.1705Z" fill="#E1D4C9"/>
</svg>
